<?xml version="1.0" standalone="no"?>
<!DOCTYPE svg PUBLIC "-//W3C//DTD SVG 20010904//EN"
 "http://www.w3.org/TR/2001/REC-SVG-20010904/DTD/svg10.dtd">
<svg version="1.0" xmlns="http://www.w3.org/2000/svg"
 width="1024.000000pt" height="1024.000000pt" viewBox="0 0 1024.000000 1024.000000"
 preserveAspectRatio="xMidYMid meet">

<g transform="translate(0.000000,1024.000000) scale(0.100000,-0.100000)"
fill="#000000" stroke="none">
<path d="M4068 6792 l-278 -2 0 -50 0 -50 608 2 607 3 0 50 0 50 -330 0 c-181
0 -455 -1 -607 -3z"/>
<path d="M5100 6045 l0 -755 50 0 50 0 0 755 0 755 -50 0 -50 0 0 -755z"/>
<path d="M5300 6045 l0 -755 50 0 50 0 0 755 0 755 -50 0 -50 0 0 -755z"/>
<path d="M5500 6045 l0 -755 50 0 50 0 0 755 0 755 -50 0 -50 0 0 -755z"/>
<path d="M3788 6553 c-3 -27 -3 -51 -1 -55 5 -10 1050 -10 1146 -1 l67 6 0 48
0 49 -604 0 -604 0 -4 -47z"/>
<path d="M3789 6393 c0 -5 -1 -27 -3 -50 l-2 -43 608 0 608 0 0 50 0 50 -605
0 c-333 0 -605 -3 -606 -7z"/>
<path d="M4420 5430 l0 -750 50 0 50 0 2 238 c1 130 2 468 2 749 l1 513 -52 0
-53 0 0 -750z"/>
<path d="M4620 5430 l0 -750 50 0 c28 0 50 3 50 8 0 4 2 341 4 750 l3 742 -54
0 -53 0 0 -750z"/>
<path d="M4820 5429 l0 -750 53 3 52 3 3 748 2 747 -55 0 -55 0 0 -751z"/>
<path d="M5082 5128 l3 -53 608 0 c335 0 611 3 613 6 2 4 1 28 -2 53 l-7 46
-609 0 -609 0 3 -52z"/>
<path d="M5080 4930 l0 -50 615 0 615 0 0 50 0 50 -615 0 -615 0 0 -50z"/>
<path d="M5080 4730 l0 -50 610 0 610 0 0 50 0 50 -610 0 -610 0 0 -50z"/>
<path d="M3848 4243 c-17 -4 -18 -27 -18 -304 l0 -299 55 0 55 0 0 289 c0 159
-3 296 -6 305 -6 16 -46 20 -86 9z"/>
<path d="M4115 4240 l-50 -5 -3 -48 -3 -48 58 3 58 3 0 48 c0 27 -2 50 -5 51
-3 1 -27 -1 -55 -4z"/>
<path d="M6520 3946 l0 -306 55 0 c55 0 55 0 55 31 l0 31 30 -25 c74 -63 171
-56 244 17 98 97 85 280 -25 353 -60 40 -147 40 -207 1 l-41 -28 -3 113 -3
112 -52 3 -53 3 0 -305z m307 0 c27 -29 33 -44 33 -81 0 -83 -44 -135 -113
-135 -79 0 -121 47 -119 135 0 54 14 81 55 106 48 30 103 20 144 -25z"/>
<path d="M2998 4222 l-138 -3 0 -49 0 -50 85 0 85 0 0 -240 0 -240 55 0 55 0
0 240 0 240 96 0 95 0 -3 53 -3 52 -95 0 c-52 0 -157 -1 -232 -3z"/>
<path d="M5560 3935 l0 -295 205 0 205 0 0 50 0 50 -150 0 -150 0 0 245 0 245
-55 0 -55 0 0 -295z"/>
<path d="M3415 4065 c-23 -8 -58 -33 -81 -59 -119 -130 -55 -328 118 -365 86
-19 169 8 225 73 41 46 56 96 51 167 -11 145 -165 236 -313 184z m142 -95 c52
-32 67 -65 64 -143 -1 -19 -13 -41 -35 -63 -29 -29 -41 -34 -80 -34 -127 0
-173 173 -63 240 41 25 73 25 114 0z"/>
<path d="M4333 4073 l-33 -4 0 -215 0 -214 49 0 50 0 3 144 c3 136 4 146 27
170 48 51 121 42 146 -19 11 -24 15 -73 15 -165 l0 -130 56 0 56 0 -4 168 c-3
152 -5 170 -26 204 -42 67 -138 88 -213 46 -22 -12 -39 -25 -39 -30 0 -4 -4
-8 -10 -8 -5 0 -10 14 -10 30 0 32 1 31 -67 23z"/>
<path d="M4932 4067 c-51 -19 -98 -62 -122 -112 -18 -37 -21 -59 -18 -115 3
-58 9 -76 35 -112 81 -112 269 -126 359 -26 86 93 83 224 -6 310 -68 65 -162
86 -248 55z m155 -102 c28 -19 53 -71 53 -111 0 -40 -30 -93 -61 -109 -15 -8
-47 -15 -70 -15 -33 0 -47 6 -75 34 -30 30 -34 40 -34 89 0 45 5 61 27 87 14
18 36 36 47 41 28 12 82 4 113 -16z"/>
<path d="M6108 4065 c-26 -9 -50 -20 -53 -25 -10 -16 24 -83 39 -77 89 34 154
31 186 -10 39 -49 29 -59 -56 -55 -94 5 -145 -9 -178 -48 -57 -69 -38 -156 44
-198 53 -27 112 -24 167 8 42 25 43 25 43 0 0 -17 7 -20 50 -20 l50 0 0 164
c0 153 -1 165 -23 196 -12 19 -37 43 -55 53 -45 26 -151 32 -214 12z m189
-238 c3 -4 2 -24 -3 -45 -12 -49 -62 -78 -117 -68 -64 12 -75 79 -19 111 27
15 124 16 139 2z"/>
<path d="M7124 4062 c-74 -35 -94 -140 -37 -194 13 -12 56 -34 95 -48 81 -29
109 -57 83 -84 -23 -23 -82 -20 -142 8 l-52 25 -20 -34 c-18 -31 -18 -34 -2
-49 47 -43 193 -61 251 -31 44 23 70 62 70 107 0 77 -28 104 -147 142 -60 20
-82 40 -67 63 6 9 19 19 29 23 18 7 85 -6 127 -24 12 -6 21 0 32 23 22 42 21
45 -21 65 -57 28 -149 31 -199 8z"/>
<path d="M4070 3855 l0 -215 50 0 50 0 0 215 0 215 -50 0 -50 0 0 -215z"/>
</g>
</svg>
